<svg viewBox="0 0 33 32" fill="none" xmlns="http://www.w3.org/2000/svg">
<rect width="33" height="32" fill="#E5E5E5"/>
<g clip-path="url(#clip0_0:1)">
<rect width="1440" height="7499" transform="translate(-752 -4501)" fill="white"/>
<rect width="1440" height="6731" transform="matrix(1 0 0 -1 -752 2998)" fill="white"/>
<g clip-path="url(#clip1_0:1)">
<path d="M29.9846 24.8775V23.98C29.9846 23.7212 29.7747 23.5113 29.5154 23.5113C29.2564 23.5113 29.0463 23.7212 29.0463 23.98V24.7244C29.0138 24.7234 28.9813 24.7229 28.9485 24.7229H18.6624V21.2886H29.0463V22.0945C29.0463 22.3533 29.2564 22.5633 29.5154 22.5633C29.7747 22.5633 29.9846 22.3533 29.9846 22.0945V21.1973C29.9846 20.7308 29.6049 20.3511 29.1377 20.3511H25.0121V19.4246C25.0121 17.4502 23.8551 16.1502 21.4751 15.4502C21.4609 15.4461 21.4468 15.4424 21.4321 15.4397L16.787 14.5371V13.5581C16.949 13.4463 17.1071 13.3242 17.2613 13.1917C18.0948 12.4746 18.6267 11.4478 18.7587 10.3242C19.3832 10.2537 19.8702 9.72292 19.8702 9.08034V8.25319C20.2761 8.06325 20.5576 7.65138 20.5576 7.17482C20.5576 6.60695 20.1573 6.13063 19.6239 6.01271V5.71534C19.6239 2.73609 17.198 0.3125 14.2165 0.3125H13.7676C12.0222 0.3125 10.375 1.16138 9.361 2.58326C9.21072 2.79419 9.25984 3.08692 9.47095 3.23707C9.68207 3.38746 9.9748 3.33814 10.1251 3.1272C10.495 2.6084 10.9671 2.18189 11.5027 1.86743V2.75464C11.5027 3.01368 11.7129 3.22339 11.9719 3.22339C12.2311 3.22339 12.441 3.01368 12.441 2.75464V1.45215C12.7987 1.34058 13.1719 1.27344 13.5523 1.25513V3.87427C13.5523 4.13306 13.7622 4.34303 14.0215 4.34303C14.2805 4.34303 14.4906 4.13306 14.4906 3.87427V1.2583C14.8547 1.28028 15.2073 1.34619 15.543 1.45069V2.75464C15.543 3.01368 15.7529 3.22339 16.0122 3.22339C16.2712 3.22339 16.4813 3.01368 16.4813 2.75464V1.8667C17.7994 2.64405 18.6856 4.07813 18.6856 5.7151V5.98463H9.29844V5.7151C9.29844 5.36231 9.33974 5.01148 9.42111 4.67188C9.48122 4.42017 9.32581 4.16724 9.07389 4.10694C8.82147 4.04639 8.56882 4.20216 8.50846 4.45387C8.40999 4.86475 8.36014 5.28907 8.36014 5.7151V6.01271C7.82673 6.13063 7.42648 6.60695 7.42648 7.17482C7.42648 7.65114 7.70822 8.06325 8.11384 8.25319V9.08034C8.11384 9.72267 8.60083 10.2537 9.22538 10.324C9.35733 11.4478 9.88952 12.4746 10.7228 13.1917C10.8769 13.3242 11.035 13.4463 11.197 13.5579V14.5371L6.55196 15.4395C6.53729 15.4424 6.52312 15.4458 6.50895 15.45C4.12899 16.1502 2.97199 17.4502 2.97199 19.4246V24.8772C1.52202 25.3211 0.464722 26.6712 0.464722 28.2635C0.464722 30.2156 2.05421 31.804 4.00828 31.804H28.9485C30.9024 31.804 32.4921 30.2156 32.4921 28.2635C32.4921 26.6712 31.4348 25.3211 29.9846 24.8775V24.8775ZM21.5364 16.4522C23.2877 17.0415 24.0738 17.9681 24.0738 19.4246V20.3511H21.5364V16.4522ZM8.36478 7.17482C8.36478 7.03541 8.47816 6.92213 8.61744 6.92213H19.3666C19.5061 6.92213 19.6195 7.03566 19.6195 7.17482C19.6195 7.31398 19.5059 7.42726 19.3666 7.42726H8.61744C8.47816 7.42726 8.36478 7.31422 8.36478 7.17482ZM10.1322 9.85329C10.1265 9.59841 9.91836 9.39455 9.66301 9.39455H9.36662C9.19337 9.39455 9.05214 9.25368 9.05214 9.08034V8.36501H18.9319V9.08034C18.9319 9.25368 18.7909 9.39455 18.6174 9.39455H18.321C18.0659 9.39455 17.8575 9.59841 17.8521 9.85329C17.8299 10.8848 17.3915 11.8426 16.6492 12.4812C15.8758 13.1465 14.982 13.49 13.9922 13.5022C13.0023 13.49 12.1085 13.1465 11.3351 12.4812C10.5928 11.8426 10.1542 10.8848 10.1322 9.85329V9.85329ZM15.8487 14.0694V14.9236C15.8487 15.9463 15.0157 16.7786 13.9922 16.7786C12.9683 16.7786 12.1353 15.9466 12.1353 14.9236V14.0694C12.7147 14.3081 13.3334 14.4324 13.9868 14.4397H13.9973C14.6507 14.4324 15.2694 14.3084 15.8487 14.0694V14.0694ZM9.66203 15.7906L11.2532 15.4812C11.5125 16.7549 12.6421 17.7161 13.9922 17.7161C15.3422 17.7161 16.4716 16.7549 16.7311 15.4812L18.322 15.7906V18.4373C18.322 18.6936 18.1131 18.9021 17.8565 18.9021H10.1278C9.87095 18.9021 9.66228 18.6936 9.66228 18.4373V15.7906H9.66203ZM7.38592 16.2327L8.72398 15.9727V18.4373C8.72398 19.2107 9.35367 19.8396 10.1278 19.8396H17.8565C18.6304 19.8396 19.2603 19.2107 19.2603 18.4373V15.9727L20.5981 16.2327V20.3511H18.5713C18.1041 20.3511 17.7241 20.7308 17.7241 21.1973V24.7229H7.38592V16.2327ZM3.91054 19.4246C3.91054 17.9681 4.69637 17.0415 6.44762 16.4522V20.3511H3.91054V19.4246ZM3.91054 21.2886H6.44762V24.7229H4.00828C3.97553 24.7229 3.94279 24.7234 3.91054 24.7244V21.2886ZM28.9485 30.8665H4.00828C2.57175 30.8665 1.40302 29.6988 1.40302 28.2635C1.40302 26.8282 2.57175 25.6604 4.00828 25.6604H28.9485C30.3851 25.6604 31.5538 26.8282 31.5538 28.2635C31.5538 29.6988 30.3851 30.8665 28.9485 30.8665Z" fill="currentColor"/>
<path d="M28.9486 26.4756H4.00831C3.02138 26.4756 2.21844 27.2778 2.21844 28.2637C2.21844 29.2498 3.02138 30.0518 4.00831 30.0518H28.9486C29.9355 30.0518 30.7382 29.2498 30.7382 28.2637C30.7384 27.2778 29.9355 26.4756 28.9486 26.4756ZM4.00831 29.1145C3.58656 29.1145 3.23543 28.8064 3.16848 28.4036C3.16774 28.4001 3.16725 28.3967 3.16677 28.3931C3.16554 28.3862 3.16457 28.3792 3.16383 28.3721C3.16334 28.3684 3.16286 28.365 3.16237 28.3613C3.1609 28.3472 3.15944 28.3328 3.1587 28.3184C3.15748 28.3003 3.15675 28.282 3.15675 28.2637C3.15675 28.2454 3.15748 28.2273 3.1587 28.2092C3.15944 28.1948 3.1609 28.1804 3.16237 28.1663C3.16286 28.1626 3.16334 28.1592 3.16383 28.1555C3.16457 28.1484 3.16554 28.1414 3.16677 28.1345C3.16725 28.1309 3.16774 28.1274 3.16848 28.1238C3.23543 27.7212 3.58656 27.4131 4.00831 27.4131C4.4777 27.4131 4.85962 27.7947 4.85962 28.2637C4.85962 28.7327 4.4777 29.1143 4.00831 29.1145ZM10.291 29.1145H5.58216C5.71973 28.8613 5.79792 28.5715 5.79792 28.2637C5.79792 27.9561 5.71973 27.6663 5.58216 27.4131H10.291C10.1535 27.6663 10.0753 27.9561 10.0753 28.2637C10.0753 28.5713 10.1535 28.8613 10.291 29.1145ZM11.8649 29.1145C11.3952 29.1145 11.0136 28.7329 11.0136 28.2637C11.0136 27.7947 11.3952 27.4131 11.8649 27.4131C12.3343 27.4131 12.7162 27.7947 12.7162 28.2637C12.7162 28.7329 12.3343 29.1145 11.8649 29.1145ZM19.5181 29.1145H13.4387C13.5763 28.8613 13.6545 28.5715 13.6545 28.2637C13.6545 27.9561 13.5763 27.6663 13.4387 27.4131H19.5181C19.3806 27.6663 19.3024 27.9561 19.3024 28.2637C19.3024 28.5713 19.3806 28.8613 19.5181 29.1145ZM21.092 29.1145C20.6226 29.1145 20.2407 28.7329 20.2407 28.2637C20.2407 27.7947 20.6226 27.4131 21.092 27.4131C21.5616 27.4131 21.9433 27.7947 21.9433 28.2637C21.9433 28.7329 21.5616 29.1145 21.092 29.1145ZM22.6659 29.1145C22.8034 28.8613 22.8816 28.5715 22.8816 28.2637C22.8816 27.9561 22.8034 27.6663 22.6659 27.4131H27.3747C27.2372 27.6663 27.159 27.9561 27.159 28.2637C27.159 28.5715 27.2372 28.8613 27.3747 29.1145H22.6659ZM28.9486 29.1145C28.4792 29.1145 28.0973 28.7327 28.0973 28.2637C28.0973 27.7947 28.4792 27.4131 28.9486 27.4131C29.418 27.4131 29.8001 27.7947 29.8001 28.2637C29.8001 28.7329 29.418 29.1145 28.9486 29.1145Z" fill="currentColor"/>
</g>
</g>
<defs>
<clipPath id="clip0_0:1">
<rect width="1440" height="7499" fill="white" transform="translate(-752 -4501)"/>
</clipPath>
<clipPath id="clip1_0:1">
<rect width="32.0273" height="32" fill="white" transform="translate(0.527283)"/>
</clipPath>
</defs>
</svg>