<?xml version="1.0" encoding="UTF-8"?>

<svg xmlns="http://www.w3.org/2000/svg" xml:space="" version="1.1" fill="currentColor" style="shape-rendering:geometricPrecision; text-rendering:geometricPrecision; image-rendering:optimizeQuality; fill-rule:evenodd; clip-rule:evenodd"
viewBox="0 0 10600 10600"
 xmlns:xlink="http://www.w3.org/1999/xlink">
 <defs>
  <style type="text/css">
 
  </style>
 </defs>
 <g >
  <metadata id="CorelCorpID_0Corel-Layer"/>
  <path  d="M3715 7389l59 -1120c229,-100 2115,-261 2515,-302 846,-87 1678,-208 2520,-312l1 1098 -5095 636zm-2223 -2098l1473 608 51 1544 -1472 -753 -52 -1399zm2254 472c617,-89 2050,-384 2603,-278l20 393 -2604 285 -20 -400zm2687 -287c383,-147 1934,-284 2365,-254l12 357c-633,64 -1780,309 -2352,280l-25 -384zm-3408 374c-102,-93 -272,-117 -342,-260 -230,-469 548,-907 844,-354 208,389 196,1730 97,2164l-521 63 -77 -1613zm492 -781c406,-105 1149,-172 1571,-174 388,-2 381,-22 723,141 154,73 408,212 469,358 -976,0 -2314,289 -2552,280 -52,-305 -70,-343 -212,-605zm2192 -200c596,-94 1094,-173 1707,-149 278,11 1244,182 1371,427 -722,-61 -1635,124 -2359,239 -49,-26 -234,-203 -341,-276 -122,-82 -286,-143 -379,-241zm3173 1860c0,-382 -54,-1758 16,-2032 74,-288 381,-411 629,-239 117,81 147,274 105,412 -40,133 -179,159 -301,199l-23 1596 -426 64zm-6270 -1077c-266,-68 -686,-268 -955,-379 -258,-107 -740,-300 -544,-668 209,-391 610,-161 923,-62 237,75 779,239 943,380 -367,122 -460,352 -367,729zm5375 -1545l1060 237c-252,259 -229,288 -252,666 -125,-49 -779,-286 -817,-310l9 -592zm-6228 248c-101,-307 -196,-710 152,-855 -48,283 100,665 138,961l-291 -106zm231 -820c160,-163 448,-117 664,-132 372,-26 2167,-197 2270,-143 233,241 392,1212 379,1559 -665,15 -1136,106 -1767,162 -174,16 -1385,-490 -1394,-502 -60,-210 -193,-751 -152,-945zm3117 -263c137,-61 2317,-210 2502,-177 268,343 314,1162 287,1590 -177,7 -413,-40 -620,-40 -788,0 -1654,190 -1885,174 -36,-293 -50,-535 -120,-828 -39,-161 -178,-595 -164,-720zm-76 -38c-305,-134 -1737,45 -2164,77 -1307,97 -1332,60 -1206,1026 -289,-56 -585,1 -657,336 -68,314 182,450 405,586l61 1472c105,96 1486,794 1605,806 306,30 1697,-214 2122,-259 560,-60 3875,-453 4183,-556l24 -1588c254,-90 363,-209 309,-504 -48,-262 -230,-297 -461,-324 -225,-26 -1151,-214 -1287,-313 -43,-324 -129,-674 -285,-960 -184,-40 -2504,77 -2649,200z"/>
 </g>
</svg>
