<svg  viewBox="0 0 33 32" fill="none" xmlns="http://www.w3.org/2000/svg">
<g clip-path="url(#clip0_24:691)">
<path d="M31.0443 22.7728C30.5579 22.0195 29.5832 21.8219 28.8608 22.3107L28.4803 22.5105L26.5102 20.9408C24.5464 19.3761 22.17 18.5243 19.7552 18.4095C19.8706 17.7822 20.1853 16.942 20.9913 16.1365C21.2294 16.2021 22.107 16.2237 22.3813 16.2237C23.9883 16.2237 25.4109 15.9105 26.6226 15.2883C26.8531 15.17 26.9439 14.8874 26.8255 14.6571C26.707 14.4267 26.424 14.3361 26.1938 14.4545C25.0154 15.0595 23.5961 15.335 21.9678 15.2781C24.908 12.8246 28.2002 10.8786 29.6632 10.0586C29.4113 10.9134 28.8889 12.1786 27.8415 13.2435C27.66 13.4281 27.6626 13.7249 27.8474 13.9063C28.032 14.0876 28.329 14.0853 28.5108 13.9005C30.0769 12.3083 30.6004 10.332 30.7528 9.55627C30.8508 9.05727 30.4237 8.61545 29.9041 8.62214C25.3046 8.70983 20.9624 10.6749 20.3858 15.2847C20.3801 15.33 20.3793 15.3752 20.382 15.4201C20.0973 15.6974 19.8611 15.9795 19.6658 16.2596V12.3599C21.6971 10.5123 22.3381 8.07389 21.8364 5.34108C21.4146 3.04445 20.2758 1.07539 19.8058 0.335517C19.8058 0.335455 19.8058 0.335455 19.8058 0.335455C19.5296 -0.0993577 18.8805 -0.124108 18.5886 0.335455C18.1185 1.07539 16.9797 3.04439 16.558 5.34108C16.0575 8.06702 16.6928 10.5078 18.7275 12.3591V16.1803C18.5436 15.9263 18.3256 15.6713 18.0677 15.4201C18.0704 15.3752 18.0696 15.33 18.0639 15.2847C17.4882 10.6819 13.1434 8.7097 8.54566 8.62208C8.02121 8.61702 7.59941 9.05995 7.69694 9.55614C8.42843 13.2808 11.2481 16.2246 16.0497 16.2246C16.3256 16.2246 17.2215 16.2016 17.4585 16.1363C18.266 16.9425 18.5813 17.78 18.6964 18.4065C16.8387 18.4839 14.9907 18.9981 13.322 19.9609C13.1329 19.8937 12.961 19.8368 12.8173 19.7938C11.4146 19.374 9.85515 19.5565 8.53853 20.2941L5.16747 22.1827C4.74805 21.7561 4.0816 21.6479 3.53802 21.9616L2.44502 22.5921C1.80291 22.9626 1.5821 23.786 1.95285 24.4276L5.94025 31.3278C6.31119 31.9697 7.13233 32.1916 7.77732 31.8196L8.87025 31.1892C9.5021 30.8246 9.72473 30.0219 9.37849 29.385L10.2013 28.6558C10.4401 28.4442 10.7771 28.3734 11.0808 28.4711L14.8722 29.6886C15.3445 29.8715 15.8676 29.9471 16.3901 29.8938L23.9648 29.1171C24.5128 29.061 25.0455 28.8642 25.5056 28.548C31.0744 24.7181 30.7403 24.9557 30.789 24.9101C31.3705 24.3665 31.4803 23.4475 31.0443 22.7728ZM28.4661 9.66302C26.8015 10.6312 24.0439 12.3472 21.5104 14.4392C22.4938 10.9493 26.144 9.9442 28.4661 9.66302ZM16.941 14.4406C14.4104 12.3508 11.6561 10.6361 9.99033 9.66695C13.1189 10.0547 16.0858 11.3935 16.941 14.4406ZM8.78499 10.0579C10.2473 10.8773 13.541 12.824 16.4824 15.2786C11.0833 15.467 9.3317 11.9308 8.78499 10.0579ZM20.9135 5.51033C21.3156 7.70052 20.8955 9.54577 19.6658 11.0116V1.98183C20.1302 2.88558 20.6614 4.13764 20.9135 5.51033ZM17.481 5.51033C17.7329 4.13852 18.2634 2.88727 18.7276 1.98377V11.0104C17.4987 9.54477 17.0789 7.69995 17.481 5.51033ZM25.9252 21.6739L27.5733 22.987L25.5111 24.07C24.8348 24.4253 24.1183 24.649 23.3751 24.7376L23.3861 24.5548C23.3876 24.5306 23.3872 24.5065 23.3849 24.4825C23.2822 23.3959 22.4863 22.5291 21.4492 22.3746C21.445 22.374 21.4407 22.3734 21.4365 22.373L17.6713 21.9163C16.4785 21.7368 16.3162 21.2145 14.4693 20.414C18.1764 18.6153 22.6678 19.0785 25.9252 21.6739ZM30.1698 24.2043L24.9737 27.7757C24.6429 28.0031 24.2611 28.1444 23.8691 28.1846L16.2944 28.9612C15.7765 29.0143 15.4557 28.8916 15.1729 28.8005L11.3679 27.5785C10.7498 27.3802 10.0641 27.5241 9.5786 27.9546L8.90096 28.5551L7.38286 25.928C7.25331 25.7037 6.96625 25.6271 6.742 25.7564C6.51762 25.8858 6.44074 26.1725 6.57029 26.3967C6.83057 26.8471 8.02034 28.9061 8.54985 29.8225C8.66188 30.0165 8.59514 30.2653 8.40104 30.3773L7.3081 31.0078C7.11313 31.1201 6.86498 31.0533 6.75276 30.8591L2.76561 23.959C2.65357 23.765 2.72026 23.5161 2.91442 23.4041L4.00735 22.7736C4.20277 22.6609 4.45079 22.7286 4.5627 22.9223L5.47135 24.4948C5.60096 24.719 5.88789 24.7958 6.11221 24.6664C6.33659 24.537 6.41347 24.2503 6.28392 24.0261L5.67546 22.9731L8.99761 21.112C10.0938 20.4978 11.388 20.3448 12.5483 20.692C15.4609 21.5634 15.811 22.5868 17.539 22.8443C17.5431 22.845 17.5474 22.8456 17.5517 22.846L21.3166 23.3026C21.9125 23.3943 22.3729 23.8985 22.4472 24.5366L22.4309 24.8047L17.6449 25.117C17.3863 25.134 17.1904 25.357 17.2073 25.6154C17.2236 25.8633 17.4299 26.0536 17.675 26.0536C17.6853 26.0536 17.6956 26.0533 17.7061 26.0526C22.7714 25.5953 23.8928 25.9791 25.9477 24.8997C29.5297 23.017 29.328 23.1286 29.3755 23.0949C29.6652 22.8898 30.054 22.9682 30.2561 23.2811C30.444 23.5721 30.4057 23.9633 30.1698 24.2043Z" fill="currentColor"/>
</g>
<defs>
<clipPath id="clip0_24:691">
<rect width="32.0273" height="32" fill="white" transform="translate(0.528137)"/>
</clipPath>
</defs>
</svg>
