<svg  viewBox="0 0 33 32" fill="none" xmlns="http://www.w3.org/2000/svg">
<g clip-path="url(#clip0_24:365)">
<path d="M30.8895 9.30004C30.7936 9.19982 30.6609 9.14282 30.5218 9.14282H15.7792C15.6402 9.14282 15.5073 9.19982 15.4115 9.30004C15.3155 9.40026 15.2648 9.5356 15.2712 9.67452L15.6384 17.5634C15.6514 17.8432 15.8931 18.064 16.1699 18.0471C16.4504 18.0342 16.6672 17.7961 16.6543 17.5158L16.3118 10.1587H29.9897L29.0201 30.984H17.6031C17.3223 30.984 17.0947 31.2112 17.0947 31.492C17.0947 31.7728 17.3223 31.9999 17.6031 31.9999H29.5052C29.7768 31.9999 30.0003 31.7866 30.0131 31.5157L31.0298 9.67452C31.0362 9.5356 30.9856 9.40026 30.8895 9.30004Z" fill="currentColor"/>
<path d="M21.3714 27.9365H3.07011C2.78937 27.9365 2.56172 28.1637 2.56172 28.4445C2.56172 30.4048 4.15809 32 6.12032 32H18.3212C20.2833 32 21.8798 30.4047 21.8798 28.4445C21.8797 28.1637 21.6521 27.9365 21.3714 27.9365ZM18.3212 30.9841H6.12032C4.89272 30.9841 3.86558 30.1101 3.62959 28.9524H20.8119C20.5757 30.1101 19.5486 30.9841 18.3212 30.9841Z" fill="currentColor"/>
<path d="M21.3713 24.8889H3.07011C1.94893 24.8889 1.03662 25.8001 1.03662 26.9207C1.03662 28.0412 1.94885 28.9524 3.07011 28.9524H21.3713C22.4925 28.9524 23.4048 28.0412 23.4048 26.9207C23.4048 25.8001 22.4925 24.8889 21.3713 24.8889ZM21.3713 27.9365H3.07011C2.50937 27.9365 2.0534 27.4806 2.0534 26.9207C2.0534 26.3607 2.50945 25.9048 3.07011 25.9048H21.3713C21.9321 25.9048 22.3881 26.3607 22.3881 26.9207C22.3881 27.4806 21.932 27.9365 21.3713 27.9365Z" fill="currentColor"/>
<path d="M22.8963 15.2383C20.5769 15.2383 18.5527 16.8039 17.9738 19.0449C17.9035 19.3168 18.0671 19.5935 18.3389 19.6639C18.6113 19.7334 18.8879 19.5707 18.9582 19.2988C19.4211 17.5061 21.0405 16.2541 22.8963 16.2541C25.1388 16.2541 26.9632 18.077 26.9632 20.3176C26.9632 22.5582 25.1388 24.381 22.8963 24.381C22.4299 24.381 21.9731 24.3032 21.539 24.1494C21.2746 24.0567 20.9837 24.1941 20.8901 24.4585C20.7963 24.7228 20.9349 25.013 21.1995 25.1068C21.7429 25.2992 22.3138 25.3969 22.8964 25.3969C25.6996 25.3969 27.9799 23.1182 27.9799 20.3176C27.9799 17.5169 25.6996 15.2383 22.8963 15.2383Z" fill="currentColor"/>
<path d="M13.2375 16.762H11.204C6.43852 16.762 2.56172 20.6355 2.56172 25.3968C2.56172 25.6775 2.78937 25.9048 3.07011 25.9048H21.3714C21.6521 25.9048 21.8798 25.6776 21.8798 25.3968C21.8797 20.6355 18.0029 16.762 13.2375 16.762ZM3.59534 24.8889C3.85791 20.9236 7.17002 17.7779 11.204 17.7779H13.2375C17.2714 17.7779 20.5835 20.9236 20.8461 24.8889H3.59534Z" fill="currentColor"/>
<path d="M8.15374 19.8096H7.13703V20.8254H8.15374V19.8096Z" fill="currentColor"/>
<path d="M7.64535 21.8413H6.62864V22.8572H7.64535V21.8413Z" fill="currentColor"/>
<path d="M13.7458 19.3015H12.729V20.3174H13.7458V19.3015Z" fill="currentColor"/>
<path d="M16.796 21.8413H15.7793V22.8572H16.796V21.8413Z" fill="currentColor"/>
<path d="M12.2207 22.3491H11.2039V23.365H12.2207V22.3491Z" fill="currentColor"/>
<path d="M31.5387 7.11133H14.2542C13.9734 7.11133 13.7458 7.33848 13.7458 7.61929V9.65104C13.7458 9.93177 13.9734 10.159 14.2542 10.159H31.5387C31.8194 10.159 32.0471 9.93184 32.0471 9.65104V7.61929C32.0471 7.33848 31.8194 7.11133 31.5387 7.11133ZM31.0303 9.14301H14.7625V8.12717H31.0303V9.14301Z" fill="currentColor"/>
<path d="M18.3099 7.51272L16.7848 0.401671C16.726 0.127862 16.4562 -0.0477319 16.1811 0.011866C15.9066 0.0704223 15.7316 0.340734 15.7904 0.615063L17.3155 7.72612C17.3666 7.96421 17.5776 8.12738 17.8122 8.12738C17.8474 8.12738 17.8835 8.12381 17.9192 8.11592C18.1938 8.05736 18.3688 7.78698 18.3099 7.51272Z" fill="currentColor"/>
</g>
<defs>
<clipPath id="clip0_24:365">
<rect width="32.0273" height="32" fill="white" transform="translate(0.528156)"/>
</clipPath>
</defs>
</svg>