<svg width="28" height="18" viewBox="0 0 28 18" fill="none" xmlns="http://www.w3.org/2000/svg">
<path d="M14 0.75C6.1625 0.75 0.25 3.70625 0.25 7.625C0.25 10.9937 4.63625 13.6475 10.8512 14.335L10.2738 14.8988C10.1449 15.0266 10.0426 15.1787 9.97277 15.3462C9.90297 15.5138 9.86703 15.6935 9.86703 15.875C9.86703 16.0565 9.90297 16.2362 9.97277 16.4038C10.0426 16.5713 10.1449 16.7234 10.2738 16.8512C10.4016 16.9801 10.5537 17.0824 10.7212 17.1522C10.8888 17.222 11.0685 17.258 11.25 17.258C11.4315 17.258 11.6112 17.222 11.7788 17.1522C11.9463 17.0824 12.0984 16.9801 12.2262 16.8512L14.9762 14.1012C15.1014 13.9705 15.1996 13.8163 15.265 13.6475C15.4025 13.3127 15.4025 12.9373 15.265 12.6025C15.1996 12.4337 15.1014 12.2795 14.9762 12.1488L12.2262 9.39875C11.9673 9.13983 11.6162 8.99437 11.25 8.99437C10.8838 8.99437 10.5327 9.13983 10.2738 9.39875C10.0148 9.65767 9.86937 10.0088 9.86937 10.375C9.86937 10.7412 10.0148 11.0923 10.2738 11.3512L10.4387 11.5025C5.75 10.8425 3 9 3 7.625C3 5.9475 7.29 3.5 14 3.5C20.71 3.5 25 5.9475 25 7.625C25 8.76625 23.0063 10.375 19.2113 11.2C19.0316 11.2344 18.8607 11.3043 18.7084 11.4056C18.5561 11.5069 18.4256 11.6376 18.3244 11.79C18.2233 11.9423 18.1535 12.1133 18.1193 12.293C18.085 12.4727 18.087 12.6574 18.125 12.8363C18.1625 13.0134 18.2347 13.1814 18.3374 13.3306C18.44 13.4798 18.5711 13.6072 18.7232 13.7056C18.8752 13.804 19.0452 13.8713 19.2233 13.9038C19.4015 13.9363 19.5843 13.9333 19.7613 13.895C24.78 12.795 27.75 10.4575 27.75 7.625C27.75 3.70625 21.8375 0.75 14 0.75Z" fill="#2D2D2D"/>
</svg>
