<svg  viewBox="0 0 93 64" fill="none" xmlns="http://www.w3.org/2000/svg">
<path d="M93 64V0H0V64H93Z" fill="#E15200"/>
<path d="M89.1611 59.9637V4.04102H3.84375V59.9637H89.1611Z" fill="#201600"/>
<path d="M12.9421 22.4481H11.5991V12.0977H13.4298L15.4655 19.9063L17.5478 12.0977H19.3397V22.4481H17.9967V15.1976L16.1157 22.4481H14.8501L12.9421 15.1976V22.4481ZM26.0083 21.1364H22.525V17.6823H25.6484V16.3747H22.525V13.4053H25.9618V12.0977H21.1704V22.4481H26.0083V21.1364ZM29.1549 21.1364C30.703 21.1364 31.45 20.8717 31.45 19.3687C31.45 18.1466 30.9817 17.7027 29.6542 17.7027H28.7059V21.1364H29.1549ZM31.9105 21.6904C31.2661 22.1745 30.4961 22.4389 29.7045 22.4481H27.3823V12.0977H32.2202V13.4053H28.7369V16.3747H29.3329C31.1481 16.3747 32.8162 16.725 32.8162 19.2709C32.8162 20.3747 32.5259 21.1609 31.9338 21.6701L31.9105 21.6904ZM39.0745 21.1161H35.5912V17.6823H38.7146V16.3747H35.5912V13.4053H39.0281V12.0977H34.2095V22.4481H39.0513L39.0745 21.1161ZM42.2946 18.7617V13.4053H44.8527V22.4481H46.1922V12.0977H40.9322V18.6151C40.9322 20.721 40.8548 21.2586 40.1582 21.2586H39.9066V22.6436H40.1698C42.283 22.6436 42.283 20.5744 42.283 18.7454L42.2946 18.7617ZM49.776 21.0998C51.3239 21.0998 52.075 20.835 52.075 19.332C52.075 18.11 51.6029 17.666 50.2753 17.666H49.3308V21.0998H49.776ZM52.5356 21.6538C51.889 22.1367 51.1181 22.401 50.3256 22.4114H48.0032V12.0977H49.3462V16.3747H49.9426C51.7536 16.3747 53.4259 16.725 53.4259 19.2709C53.4259 20.3747 53.1394 21.1609 52.547 21.6701L52.5356 21.6538ZM15.6358 33.7515C15.6358 32.5295 15.1675 32.0856 13.84 32.0856H12.8918V35.5234H13.3407C14.8888 35.5234 15.6358 35.2587 15.6358 33.7515ZM13.4878 30.778C15.2991 30.778 16.9711 31.1283 16.9711 33.6741C16.9711 34.7821 16.6808 35.5682 16.0848 36.0774C15.441 36.5592 14.6725 36.8222 13.8826 36.831H11.5604V26.5214H16.3983V27.8289H12.915V30.7943H13.511L13.4878 30.778ZM20.3073 31.1202C21.8206 31.1202 22.5405 30.8676 22.5405 29.4297C22.5405 28.2444 22.1148 27.8574 20.7911 27.8289H19.8738V31.1202H20.3073ZM18.5076 26.5214H20.4428C22.2231 26.5214 23.868 26.8636 23.868 29.3727C23.868 30.4522 23.5893 31.2179 23.0088 31.7108C22.3709 32.1852 21.6109 32.4438 20.8298 32.4522H19.8584V36.8676H18.5154L18.5076 26.5214ZM28.0364 32.5295L27.1346 28.892L26.2289 32.5132L28.0364 32.5295ZM23.8138 36.8472L26.465 26.5214H27.808L30.463 36.8472H29.0697L28.3344 33.8371H25.8961L25.122 36.8472H23.8138ZM33.4045 36.8472V27.8126H35.5293V26.5214H29.9367V27.8289H32.0615V36.8472H33.4045ZM40.8084 33.7678C40.8084 32.5458 40.3362 32.1018 39.0126 32.1018H38.0644V35.5397H38.5133C40.0614 35.5397 40.8084 35.275 40.8084 33.7678ZM38.6604 30.7943C40.4717 30.7943 42.1437 31.1446 42.1437 33.6904C42.1437 34.7984 41.8573 35.5845 41.2612 36.0937C40.6175 36.5755 39.849 36.8385 39.059 36.8472H36.7368V26.5214H38.0798V30.7943H38.6759H38.6604ZM44.9228 32.1018H48.0341V30.7943H44.9109V27.8289H48.3479V26.5214H43.568V36.8472H48.4215V35.5234H44.9382L44.9228 32.1018ZM51.6064 30.7943C52.8723 30.7943 53.5145 30.5499 53.5145 29.2098C53.5145 28.0285 52.9031 27.8289 51.5293 27.8289H51.0339V30.7943H51.6064ZM51.781 35.5397C53.2747 35.5397 53.7781 35.0876 53.7781 33.7434C53.7781 32.3992 53.1121 32.1141 51.6183 32.1141H51.0339V35.5519H51.781V35.5397ZM53.9367 31.3849C54.7107 31.8249 55.0977 32.6477 55.0977 33.7678C55.0977 36.6192 53.1006 36.8595 51.2274 36.8595H49.679V26.5214H52.0014C52.6554 26.5214 53.4797 26.5906 54.0526 27.1242C54.318 27.3826 54.5273 27.6984 54.6657 28.05C54.8041 28.4017 54.868 28.7806 54.8539 29.1609C54.8808 29.5774 54.8112 29.9947 54.6508 30.3765C54.4903 30.7583 54.2439 31.0933 53.9328 31.3523L53.9367 31.3849ZM15.6358 48.1591C15.6358 46.937 15.1675 46.4927 13.84 46.4927H12.8918V49.9307H13.3407C14.8888 49.9307 15.6358 49.6658 15.6358 48.1591ZM13.4878 45.1853C15.2991 45.1853 16.9711 45.5357 16.9711 48.0816C16.9711 49.1896 16.6808 49.9756 16.0848 50.4849C15.441 50.9667 14.6725 51.2297 13.8826 51.2385H11.5604V40.9084H16.3983V42.2199H12.915V45.1853H13.511H13.4878ZM20.7447 43.2994L19.839 46.9208H21.6503L20.7447 43.2994ZM31.5274 45.1609L34.5617 51.2385H33.091L30.6488 46.3503L29.9057 47.3605V51.2464H28.5627V47.3605L27.8235 46.3503L25.3774 51.2385H22.7031L21.9638 48.2282H19.5255L18.7514 51.2385H17.4162L20.0674 40.9084H21.4142L24.0073 51.0145L26.9333 45.1609L23.9454 40.9084H25.54L28.5511 45.2261V40.9084H29.8941V45.2261L32.9052 40.9084H34.4882L31.5274 45.1609ZM36.7136 46.4807H39.837V45.1731H36.7136V42.2078H40.1505V40.9002H35.3745V51.226H40.2124V49.9186H36.7291L36.7136 46.4807ZM46.0022 45.055H42.9061V40.9002H41.5631V51.226H42.9061V46.3748H46.0022V51.2385H47.3452V40.9124H46.0022V45.055ZM52.0789 50.1547C52.246 50.1616 52.4126 50.1324 52.5682 50.0684C52.7242 50.0049 52.8657 49.9079 52.9842 49.7841C53.7159 49.0226 53.7119 47.2709 53.7119 46.224V46.0733C53.7454 45.1767 53.6648 44.2794 53.4722 43.4053C53.209 42.4399 52.7251 41.9715 51.9899 41.9715C50.5499 41.9715 50.3564 44.0081 50.3564 45.9837V46.1344C50.3564 47.2018 50.3564 48.986 51.0921 49.7595C51.2212 49.8949 51.3755 50.0007 51.5452 50.0707C51.7149 50.1407 51.8965 50.1737 52.0789 50.1672V50.1547ZM52.0287 40.6762C55.0514 40.6762 55.0514 44.1874 55.0514 46.2852C55.0514 47.9675 55.0514 51.4745 52.0014 51.4745C49.0135 51.4745 49.0135 47.7843 49.0135 45.8004C49.0135 44.5336 49.0135 40.6762 52.0287 40.6762ZM58.5462 45.1853C59.8116 45.1853 60.4542 44.9409 60.4542 43.5967C60.4542 42.4196 59.8424 42.2199 58.4726 42.2199H57.9732V45.1853H58.5462ZM58.7203 49.9307C60.214 49.9307 60.7174 49.4785 60.7174 48.1345C60.7174 46.79 60.0518 46.5053 58.5576 46.5053H57.9732V49.9432H58.7203V49.9307ZM60.88 45.776C61.654 46.2118 62.0603 47.0386 62.0603 48.1591C62.0603 51.0103 60.0593 51.2505 58.19 51.2505H56.6421V40.9124H58.964C59.6221 40.9124 60.4463 40.9817 61.0193 41.5153C61.2864 41.7765 61.4957 42.0959 61.6337 42.4512C61.7712 42.8065 61.8338 43.189 61.8166 43.5723C61.8439 43.9885 61.7747 44.4054 61.6147 44.7871C61.4552 45.1689 61.2092 45.504 60.8994 45.7637L60.88 45.776ZM67.6954 48.1591C67.6954 46.937 67.2274 46.4927 65.8998 46.4927H64.9517V49.9307H65.4004C66.9488 49.9307 67.6954 49.6658 67.6954 48.1591ZM65.5516 45.1853C67.3627 45.1853 69.0349 45.5357 69.0349 48.0816C69.0349 49.1896 68.7444 49.9756 68.1485 50.4849C67.5046 50.9667 66.7359 51.2297 65.9461 51.2385H63.6242V40.9084H64.9632V45.1853H65.5631H65.5516ZM69.6577 51.2385H70.9972V40.9084H69.6577V51.2385ZM76.102 45.9185L78.5632 40.9084H77.0232L75.2774 44.4929L73.5782 40.9084H72.0691L74.5034 45.9185L71.9607 51.2385H73.4275L75.2738 47.3359L77.1352 51.2385H78.6099L76.102 45.9185ZM88.6107 4.61914H4.38867V59.385H88.6107V4.61914ZM5.37173 5.64561H87.6239V58.3583H5.37173V5.64561Z" fill="white"/>
</svg>
