<svg width="16" height="16" viewBox="0 0 16 16" fill="none" xmlns="http://www.w3.org/2000/svg">
<circle cx="8" cy="8" r="7.5" stroke="#C7CDD2"/>
<path d="M4.00087 12.7661C2.73671 11.7053 1.94572 10.1858 1.80189 8.54187C1.65806 6.89791 2.17318 5.26415 3.23394 4C4.29469 2.73584 5.81417 1.94485 7.45813 1.80102C9.10209 1.65719 10.7358 2.17232 12 3.23307L8.00043 7.99957L4.00087 12.7661Z" fill="#3A1F10"/>
<path d="M4.00087 12.7661C5.26502 13.8268 6.89878 14.3419 8.54274 14.1981C10.1867 14.0543 11.7062 13.2633 12.7669 11.9991C13.8277 10.735 14.3428 9.10122 14.199 7.45726C14.0552 5.81331 13.2642 4.29382 12 3.23307L8.00043 7.99957L4.00087 12.7661Z" fill="#3A1F10"/>
</svg>
