<svg  viewBox="0 0 33 32" fill="none" xmlns="http://www.w3.org/2000/svg">
<g clip-path="url(#clip0_24:679)">
<path d="M30.4858 21.3247C30.2265 21.3247 30.0166 21.5347 30.0166 21.7935V29.2666H20.3463V20.3953C20.3463 19.792 19.8551 19.3013 19.2516 19.3013H13.8319C13.2284 19.3013 12.7373 19.7922 12.7373 20.3953V29.2666H3.0669V21.7935C3.0669 21.5347 2.85701 21.3247 2.59775 21.3247C2.3385 21.3247 2.1286 21.5347 2.1286 21.7935V29.4854C2.1286 29.8816 2.45139 30.2041 2.84796 30.2041H30.2356C30.6322 30.2041 30.9549 29.8816 30.9549 29.4854V21.7935C30.9549 21.5347 30.745 21.3247 30.4858 21.3247ZM13.6756 29.2666V20.3953C13.6756 20.3091 13.7457 20.2388 13.8319 20.2388H19.2516C19.3379 20.2388 19.408 20.3091 19.408 20.3953V29.2666H13.6756Z" fill="currentColor"/>
<path d="M28.2571 27.4148C28.8078 27.4148 29.256 26.967 29.256 26.4167V21.3015C29.256 20.7512 28.8078 20.3037 28.2571 20.3037H22.4511C21.9003 20.3037 21.4522 20.7512 21.4522 21.3015V26.4167C21.4522 26.967 21.9003 27.4148 22.4511 27.4148H28.2571ZM22.3905 26.4167V21.3015C22.3905 21.2683 22.4176 21.2412 22.4511 21.2412H28.2571C28.2906 21.2412 28.3177 21.2683 28.3177 21.3015V26.4167C28.3177 26.4502 28.2906 26.4773 28.2571 26.4773H22.4511C22.4176 26.4773 22.3905 26.4502 22.3905 26.4167Z" fill="currentColor"/>
<path d="M10.6324 27.4148C11.1832 27.4148 11.6313 26.967 11.6313 26.4167V21.3015C11.6313 20.7512 11.1832 20.3037 10.6324 20.3037H4.82647C4.27571 20.3037 3.82758 20.7512 3.82758 21.3015V26.4167C3.82758 26.967 4.27571 27.4148 4.82647 27.4148H10.6324ZM4.76588 26.4167V21.3015C4.76588 21.2683 4.793 21.2412 4.82647 21.2412H10.6324C10.6659 21.2412 10.693 21.2683 10.693 21.3015V26.4167C10.693 26.4502 10.6659 26.4773 10.6324 26.4773H4.82647C4.793 26.4773 4.76588 26.4502 4.76588 26.4167Z" fill="currentColor"/>
<path d="M31.1768 8.72314C31.1768 8.22241 31.5846 7.81519 32.0863 7.81519C32.3455 7.81519 32.5554 7.60522 32.5554 7.34644V6.19946C32.5554 5.94067 32.3455 5.73071 32.0863 5.73071H24.3417C24.0824 5.73071 23.8725 5.94067 23.8725 6.19946C23.8725 6.4585 24.0824 6.66821 24.3417 6.66821H31.6171V6.93799C30.9747 7.10645 30.4677 7.61279 30.2989 8.25439H22.9183V4.09326C22.9183 2.83569 21.8943 1.8125 20.6356 1.8125H12.4482C11.1893 1.8125 10.1655 2.83569 10.1655 4.09326V5.73071H0.997287C0.738033 5.73071 0.528137 5.94067 0.528137 6.19946V7.34644C0.528137 7.60522 0.738033 7.81519 0.997287 7.81519C1.49894 7.81519 1.90675 8.22241 1.90675 8.72314C1.90675 8.89233 1.99643 9.04053 2.13082 9.12305V12.3247H1.2866C0.889774 12.3247 0.566989 12.6472 0.566989 13.0435V15.5959C0.566989 15.9922 0.889774 16.3147 1.2866 16.3147H2.13082V19.9219C2.13082 20.1807 2.34072 20.3906 2.59997 20.3906C2.85923 20.3906 3.06912 20.1807 3.06912 19.9219V16.3147H30.0533V19.9226C30.0533 20.1814 30.2632 20.3914 30.5225 20.3914C30.7815 20.3914 30.9916 20.1814 30.9916 19.9226V16.3147H31.8358C32.2327 16.3147 32.5554 15.9922 32.5554 15.5959V13.0435C32.5554 12.6472 32.2327 12.3247 31.8358 12.3247H30.9916V9.09644C31.104 9.01074 31.1768 8.87549 31.1768 8.72314ZM11.1036 4.09326C11.1036 3.35254 11.7069 2.75 12.448 2.75H20.6354C21.3767 2.75 21.9798 3.35254 21.9798 4.09326V9.20776C21.9798 9.94849 21.3767 10.551 20.6354 10.551H12.4482C11.7069 10.551 11.1038 9.94849 11.1038 9.20776V4.09326H11.1036ZM31.6171 15.3772H1.50529V13.2622H31.6171V15.3772ZM3.06912 12.3247V9.19189H8.7583C9.01755 9.19189 9.22745 8.98218 9.22745 8.72314C9.22745 8.46436 9.01755 8.25439 8.7583 8.25439H2.7847C2.61585 7.61279 2.10883 7.10645 1.46644 6.93799V6.66821H10.1653V9.20801C10.1653 10.4656 11.1893 11.4888 12.448 11.4888H20.6354C21.8943 11.4888 22.9181 10.4656 22.9181 9.20801V9.19214H30.0531V12.3247H3.06912Z" fill="currentColor"/>
<path d="M14.7278 24.2842H14.3525C14.0932 24.2842 13.8833 24.4941 13.8833 24.7529C13.8833 25.0117 14.0932 25.2217 14.3525 25.2217H14.7278C14.987 25.2217 15.1969 25.0117 15.1969 24.7529C15.1969 24.4941 14.987 24.2842 14.7278 24.2842Z" fill="currentColor"/>
<path d="M13.1812 4.62109H13.7562L14.3461 7.43848C14.4604 7.98438 14.9486 8.38086 15.507 8.38086H18.2928C18.7832 8.38086 19.2291 8.07275 19.4024 7.6145L20.3224 5.18115C20.4098 4.94946 20.3781 4.6897 20.2373 4.48633C20.0966 4.28271 19.8644 4.16113 19.6169 4.16113H15.6768C15.4178 4.16113 15.2076 4.37085 15.2076 4.62988C15.2076 4.88867 15.4178 5.09863 15.6768 5.09863H19.3506L18.5247 7.2832C18.4885 7.37891 18.3954 7.44336 18.293 7.44336H15.507C15.3904 7.44336 15.2885 7.36035 15.2646 7.24658L14.6723 4.41821C14.5831 3.99243 14.2026 3.68359 13.7672 3.68359H13.1815C12.9222 3.68359 12.7123 3.89331 12.7123 4.15234C12.7123 4.41113 12.9222 4.62109 13.1812 4.62109Z" fill="currentColor"/>
<path d="M15.5878 8.77393H15.4627C15.2035 8.77393 14.9936 8.98364 14.9936 9.24268C14.9936 9.50146 15.2035 9.71143 15.4627 9.71143H15.5878C15.8471 9.71143 16.057 9.50146 16.057 9.24268C16.057 8.98364 15.8471 8.77393 15.5878 8.77393Z" fill="currentColor"/>
<path d="M17.6208 8.77393H17.4957C17.2364 8.77393 17.0266 8.98364 17.0266 9.24268C17.0266 9.50146 17.2364 9.71143 17.4957 9.71143H17.6208C17.8801 9.71143 18.09 9.50146 18.09 9.24268C18.09 8.98364 17.8801 8.77393 17.6208 8.77393Z" fill="currentColor"/>
</g>
<defs>
<clipPath id="clip0_24:679">
<rect width="32.0273" height="32" fill="white" transform="translate(0.528137)"/>
</clipPath>
</defs>
</svg>