<svg width="20" height="20" viewBox="0 0 20 20" fill="currentColor" xmlns="http://www.w3.org/2000/svg">
<path d="M0.351569 9.68048L4.94141 11.3914L6.71876 17.1024C6.83204 17.4695 7.28126 17.6024 7.57813 17.3602L10.1367 15.2742C10.4063 15.0555 10.7852 15.0438 11.0664 15.2469L15.6797 18.5945C15.9961 18.825 16.4492 18.6531 16.5274 18.2664L19.9063 2.00861C19.9922 1.60236 19.5781 1.2508 19.1797 1.40705L0.347662 8.66876C-0.117181 8.84845 -0.113275 9.50861 0.351569 9.68048ZM6.42969 10.4813L15.3984 4.95783C15.5586 4.86017 15.7266 5.07501 15.5859 5.20392L8.18751 12.0867C7.92579 12.3289 7.75782 12.6531 7.71094 13.0047L7.45704 14.8719C7.42188 15.1219 7.07423 15.1453 7.00391 14.9031L6.03516 11.4969C5.92579 11.1102 6.08594 10.6961 6.42969 10.4813Z" fill="currentColor"/>
</svg>
