<svg width="114" height="18" viewBox="0 0 114 18" fill="none" xmlns="http://www.w3.org/2000/svg">
<path d="M5.334 13H2.926V5.762H0.308V3.662H7.938V5.762H5.334V13ZM19.0501 13H16.2921L14.7241 9.864H13.4921V13H11.0841V3.662H15.7601C16.7681 3.662 17.5615 3.956 18.1401 4.544C18.7188 5.132 19.0081 5.874 19.0081 6.77C19.0081 7.51667 18.8215 8.128 18.4481 8.604C18.0841 9.07067 17.6501 9.39267 17.1461 9.57L19.0501 13ZM15.3961 7.764C15.7228 7.764 15.9981 7.67533 16.2221 7.498C16.4461 7.32067 16.5581 7.07333 16.5581 6.756C16.5581 6.448 16.4461 6.20533 16.2221 6.028C15.9981 5.85067 15.7228 5.762 15.3961 5.762H13.4921V7.764H15.3961ZM26.764 13.168C25.308 13.168 24.2067 12.8087 23.46 12.09C22.7133 11.3713 22.34 10.4147 22.34 9.22V3.662H24.79V9.136C24.79 9.70533 24.958 10.1673 25.294 10.522C25.6393 10.8673 26.1293 11.04 26.764 11.04C27.3893 11.04 27.87 10.8673 28.206 10.522C28.5513 10.1673 28.724 9.70533 28.724 9.136V3.662H31.16V9.206C31.16 10.41 30.7867 11.3713 30.04 12.09C29.3027 12.8087 28.2107 13.168 26.764 13.168ZM41.686 13H34.84V3.662H41.686V5.762H37.248V7.218H41.588V9.318H37.248V10.9H41.686V13ZM53.9695 13.168C52.4575 13.168 51.2628 12.6733 50.3855 11.684L51.0715 10.802C51.8648 11.6887 52.8448 12.132 54.0115 12.132C54.7675 12.132 55.3228 11.9733 55.6775 11.656C56.0322 11.3293 56.2095 10.9513 56.2095 10.522C56.2095 10.1953 56.1068 9.92 55.9015 9.696C55.6962 9.472 55.4302 9.29933 55.1035 9.178C54.7862 9.04733 54.4268 8.93067 54.0255 8.828C53.6335 8.72533 53.2415 8.61333 52.8495 8.492C52.4575 8.36133 52.0982 8.20733 51.7715 8.03C51.4542 7.85267 51.1928 7.60067 50.9875 7.274C50.7822 6.94733 50.6795 6.56 50.6795 6.112C50.6795 5.34667 50.9828 4.726 51.5895 4.25C52.1962 3.76467 52.9615 3.522 53.8855 3.522C55.2762 3.522 56.3822 3.956 57.2035 4.824L56.5035 5.678C55.8222 4.93133 54.9215 4.558 53.8015 4.558C53.2415 4.558 52.7795 4.698 52.4155 4.978C52.0608 5.24867 51.8835 5.60333 51.8835 6.042C51.8835 6.36867 52.0188 6.63933 52.2895 6.854C52.5695 7.06867 52.9102 7.22733 53.3115 7.33C53.7222 7.43267 54.1655 7.56333 54.6415 7.722C55.1268 7.87133 55.5702 8.03467 55.9715 8.212C56.3822 8.38 56.7228 8.65533 56.9935 9.038C57.2735 9.42067 57.4135 9.88267 57.4135 10.424C57.4135 11.1893 57.1288 11.838 56.5595 12.37C55.9995 12.902 55.1362 13.168 53.9695 13.168ZM68.9326 13H67.7706V8.716H62.3106V13H61.1486V3.662H62.3106V7.68H67.7706V3.662H68.9326V13ZM77.3714 13.168C75.9994 13.168 74.8841 12.7107 74.0254 11.796C73.1668 10.8813 72.7374 9.72867 72.7374 8.338C72.7374 6.94733 73.1668 5.79467 74.0254 4.88C74.8841 3.96533 75.9994 3.508 77.3714 3.508C78.7341 3.508 79.8448 3.96533 80.7034 4.88C81.5714 5.79467 82.0054 6.94733 82.0054 8.338C82.0054 9.72867 81.5714 10.8813 80.7034 11.796C79.8448 12.7107 78.7341 13.168 77.3714 13.168ZM77.3714 12.132C78.3981 12.132 79.2241 11.7773 79.8494 11.068C80.4841 10.3493 80.8014 9.43933 80.8014 8.338C80.8014 7.22733 80.4841 6.31733 79.8494 5.608C79.2241 4.89867 78.3981 4.544 77.3714 4.544C76.3354 4.544 75.5048 4.89867 74.8794 5.608C74.2541 6.31733 73.9414 7.22733 73.9414 8.338C73.9414 9.43933 74.2541 10.3493 74.8794 11.068C75.5048 11.7773 76.3354 12.132 77.3714 12.132ZM86.9825 13H85.8205V3.662H89.5725C90.4778 3.662 91.1918 3.93267 91.7145 4.474C92.2372 5.01533 92.4985 5.68267 92.4985 6.476C92.4985 7.26933 92.2325 7.93667 91.7005 8.478C91.1778 9.01933 90.4685 9.29 89.5725 9.29H86.9825V13ZM89.4325 8.254C89.9832 8.254 90.4312 8.09067 90.7765 7.764C91.1218 7.428 91.2945 6.99867 91.2945 6.476C91.2945 5.95333 91.1218 5.52867 90.7765 5.202C90.4312 4.866 89.9832 4.698 89.4325 4.698H86.9825V8.254H89.4325Z" fill="white"/>
<path d="M103.269 6.28657C103.253 6.62503 103.157 6.92452 102.982 7.18504C102.807 7.44333 102.561 7.64373 102.243 7.78624C101.928 7.92875 101.567 8 101.161 8C100.491 8 99.9631 7.79181 99.5779 7.37542C99.1926 6.95903 99 6.37119 99 5.61189V5.37141C99 4.8949 99.0864 4.47851 99.2592 4.12224C99.4343 3.76375 99.6853 3.48764 100.012 3.29392C100.339 3.09797 100.717 3 101.147 3C101.766 3 102.263 3.15587 102.639 3.4676C103.015 3.77711 103.228 4.20463 103.28 4.75017H102.054C102.045 4.45402 101.966 4.24137 101.819 4.11222C101.672 3.98308 101.448 3.9185 101.147 3.9185C100.841 3.9185 100.617 4.02761 100.474 4.24582C100.332 4.46404 100.257 4.81251 100.25 5.29125V5.63527C100.25 6.15409 100.318 6.52483 100.453 6.74749C100.591 6.97016 100.827 7.0815 101.161 7.0815C101.443 7.0815 101.659 7.01804 101.809 6.89112C101.958 6.7642 102.038 6.56268 102.047 6.28657H103.269Z" fill="white"/>
<path d="M105.465 3.07014L106.603 6.45357L107.738 3.07014H109.356V7.9332H108.123V6.7976L108.242 4.47295L107.01 7.9332H106.197L104.961 4.46961L105.08 6.7976V7.9332H103.851V3.07014H105.465Z" fill="white"/>
<path d="M112.771 6.64061C112.771 6.46916 112.707 6.33556 112.578 6.23981C112.452 6.14407 112.229 6.04498 111.909 5.94255C111.589 5.84012 111.328 5.74104 111.125 5.64529C110.464 5.33578 110.134 4.91049 110.134 4.36941C110.134 4.09998 110.215 3.86284 110.379 3.65798C110.544 3.4509 110.778 3.29058 111.079 3.17702C111.38 3.06123 111.719 3.00334 112.095 3.00334C112.461 3.00334 112.789 3.06569 113.079 3.19038C113.371 3.31507 113.597 3.49321 113.758 3.72478C113.919 3.95413 114 4.21688 114 4.51303H112.774C112.774 4.31485 112.71 4.16121 112.582 4.0521C112.456 3.943 112.284 3.88844 112.067 3.88844C111.847 3.88844 111.673 3.9352 111.545 4.02872C111.419 4.12002 111.356 4.23692 111.356 4.37943C111.356 4.50412 111.426 4.61768 111.566 4.72011C111.706 4.82031 111.952 4.92496 112.305 5.03407C112.657 5.14095 112.947 5.25674 113.173 5.38143C113.724 5.68426 114 6.10176 114 6.63393C114 7.05923 113.832 7.39323 113.496 7.63594C113.159 7.87865 112.698 8 112.112 8C111.699 8 111.324 7.92986 110.988 7.78958C110.654 7.64707 110.402 7.45335 110.232 7.20842C110.064 6.96126 109.979 6.67735 109.979 6.35671H111.212C111.212 6.61723 111.282 6.80984 111.422 6.93454C111.565 7.057 111.795 7.11824 112.112 7.11824C112.315 7.11824 112.475 7.07704 112.592 6.99466C112.711 6.91004 112.771 6.79203 112.771 6.64061Z" fill="white"/>
</svg>
